<svg width="76" height="75" viewBox="0 0 76 75" fill="none" xmlns="http://www.w3.org/2000/svg">
<path d="M35.0893 10.2005V47.6024C35.0893 51.2859 34.4809 54.8012 33.2639 58.1482C32.047 61.4953 30.4018 64.3907 28.3285 66.8346C26.2552 69.2785 23.7988 71.2176 20.9592 72.6521C18.1197 74.0865 15.1374 74.8038 12.0124 74.8038H9.12778C8.34653 74.8038 7.67045 74.4673 7.09954 73.7943C6.52863 73.1214 6.24317 72.3245 6.24317 71.4036V64.6032C6.24317 63.6824 6.52863 62.8855 7.09954 62.2125C7.67045 61.5396 8.34653 61.2031 9.12778 61.2031H12.0124C15.1975 61.2031 17.9168 59.8749 20.1705 57.2185C22.4241 54.5621 23.5509 51.3568 23.5509 47.6024V45.9023C23.5509 44.4856 23.1302 43.2813 22.2888 42.2896C21.4475 41.2979 20.4259 40.8021 19.2239 40.8021H9.12778C6.72394 40.8021 4.68067 39.8103 2.99798 37.8269C1.31528 35.8435 0.473938 33.435 0.473938 30.6015V10.2005C0.473938 7.36704 1.31528 4.95858 2.99798 2.97515C4.68067 0.991717 6.72394 0 9.12778 0H26.4355C28.8393 0 30.8826 0.991717 32.5653 2.97515C34.248 4.95858 35.0893 7.36704 35.0893 10.2005ZM75.4739 10.2005V47.6024C75.4739 51.2859 74.8655 54.8012 73.6485 58.1482C72.4316 61.4953 70.7864 64.3907 68.7131 66.8346C66.6398 69.2785 64.1834 71.2176 61.3438 72.6521C58.5043 74.0865 55.522 74.8038 52.397 74.8038H49.5124C48.7312 74.8038 48.0551 74.4673 47.4842 73.7943C46.9132 73.1214 46.6278 72.3245 46.6278 71.4036V64.6032C46.6278 63.6824 46.9132 62.8855 47.4842 62.2125C48.0551 61.5396 48.7312 61.2031 49.5124 61.2031H52.397C55.5821 61.2031 58.3015 59.8749 60.5551 57.2185C62.8087 54.5621 63.9355 51.3568 63.9355 47.6024V45.9023C63.9355 44.4856 63.5148 43.2813 62.6735 42.2896C61.8321 41.2979 60.8105 40.8021 59.6086 40.8021H49.5124C47.1086 40.8021 45.0653 39.8103 43.3826 37.8269C41.6999 35.8435 40.8586 33.435 40.8586 30.6015V10.2005C40.8586 7.36704 41.6999 4.95858 43.3826 2.97515C45.0653 0.991717 47.1086 0 49.5124 0H66.8201C69.2239 0 71.2672 0.991717 72.9499 2.97515C74.6326 4.95858 75.4739 7.36704 75.4739 10.2005Z" fill="#ECB074"/>
</svg>
